<mxfile host="app.diagrams.net" modified="2021-12-15T23:37:56.120Z" agent="5.0 (Windows NT 10.0; Win64; x64) AppleWebKit/537.36 (KHTML, like Gecko) Chrome/96.0.4664.110 Safari/537.36 Edg/96.0.1054.57" etag="HOCONuUsAzyKWg8_ALm0" version="15.9.5" type="github">
  <diagram id="hXhxZQzzaWP0dfPxDaom" name="Page-1">
    <mxGraphModel dx="1673" dy="887" grid="1" gridSize="10" guides="1" tooltips="1" connect="1" arrows="1" fold="1" page="1" pageScale="1" pageWidth="850" pageHeight="1100" math="0" shadow="0">
      <root>
        <mxCell id="0" />
        <mxCell id="1" parent="0" />
        <mxCell id="Oe34ZR86a4oHpsQZYLKm-1" value="code verification&lt;br&gt;adt4t manual upload" style="edgeStyle=orthogonalEdgeStyle;rounded=0;orthogonalLoop=1;jettySize=auto;html=1;exitX=0.5;exitY=0;exitDx=0;exitDy=0;entryX=0.5;entryY=1;entryDx=0;entryDy=0;" parent="1" source="Oe34ZR86a4oHpsQZYLKm-4" target="Oe34ZR86a4oHpsQZYLKm-6" edge="1">
          <mxGeometry relative="1" as="geometry" />
        </mxCell>
        <mxCell id="Oe34ZR86a4oHpsQZYLKm-2" style="edgeStyle=orthogonalEdgeStyle;rounded=0;orthogonalLoop=1;jettySize=auto;html=1;exitX=1;exitY=0.5;exitDx=0;exitDy=0;" parent="1" source="Oe34ZR86a4oHpsQZYLKm-4" target="Oe34ZR86a4oHpsQZYLKm-12" edge="1">
          <mxGeometry relative="1" as="geometry" />
        </mxCell>
        <mxCell id="Oe34ZR86a4oHpsQZYLKm-3" value="&lt;span style=&quot;font-size: 12px ; background-color: rgb(248 , 249 , 250)&quot;&gt;email verif.&lt;/span&gt;&lt;br style=&quot;font-size: 12px ; background-color: rgb(248 , 249 , 250)&quot;&gt;&lt;span style=&quot;font-size: 12px ; background-color: rgb(248 , 249 , 250)&quot;&gt;aad verif,&lt;/span&gt;&lt;br style=&quot;font-size: 12px ; background-color: rgb(248 , 249 , 250)&quot;&gt;&lt;span style=&quot;font-size: 12px ; background-color: rgb(248 , 249 , 250)&quot;&gt;shibboleth&lt;br&gt;&lt;/span&gt;" style="edgeLabel;html=1;align=center;verticalAlign=middle;resizable=0;points=[];" parent="Oe34ZR86a4oHpsQZYLKm-2" vertex="1" connectable="0">
          <mxGeometry x="-0.3179" y="-3" relative="1" as="geometry">
            <mxPoint as="offset" />
          </mxGeometry>
        </mxCell>
        <mxCell id="Oe34ZR86a4oHpsQZYLKm-4" value="&lt;p class=&quot;MsoListParagraph&quot; style=&quot;text-indent: -0.25in&quot;&gt;&amp;nbsp; &amp;nbsp; &amp;nbsp; &amp;nbsp; &amp;nbsp;UserRiskNotCalled&amp;nbsp;&lt;/p&gt;" style="ellipse;whiteSpace=wrap;html=1;fillColor=#f5f5f5;strokeColor=#666666;fontColor=#333333;" parent="1" vertex="1">
          <mxGeometry x="20" y="250" width="120" height="80" as="geometry" />
        </mxCell>
        <mxCell id="Oe34ZR86a4oHpsQZYLKm-5" style="edgeStyle=orthogonalEdgeStyle;rounded=0;orthogonalLoop=1;jettySize=auto;html=1;exitX=1;exitY=0.5;exitDx=0;exitDy=0;entryX=0;entryY=0.5;entryDx=0;entryDy=0;fillColor=#d5e8d4;strokeColor=#82b366;" parent="1" source="Oe34ZR86a4oHpsQZYLKm-6" target="Oe34ZR86a4oHpsQZYLKm-35" edge="1">
          <mxGeometry relative="1" as="geometry">
            <Array as="points">
              <mxPoint x="700" y="80" />
              <mxPoint x="700" y="290" />
            </Array>
          </mxGeometry>
        </mxCell>
        <mxCell id="Oe34ZR86a4oHpsQZYLKm-6" value="SheerIDOutOfScope&lt;br&gt;" style="ellipse;whiteSpace=wrap;html=1;fillColor=#f5f5f5;strokeColor=#666666;fontColor=#333333;" parent="1" vertex="1">
          <mxGeometry x="20" y="40" width="120" height="80" as="geometry" />
        </mxCell>
        <mxCell id="Oe34ZR86a4oHpsQZYLKm-7" style="edgeStyle=orthogonalEdgeStyle;rounded=0;orthogonalLoop=1;jettySize=auto;html=1;exitX=1;exitY=0.5;exitDx=0;exitDy=0;entryX=0;entryY=0.5;entryDx=0;entryDy=0;fillColor=#f8cecc;strokeColor=#b85450;" parent="1" source="Oe34ZR86a4oHpsQZYLKm-8" target="Oe34ZR86a4oHpsQZYLKm-36" edge="1">
          <mxGeometry relative="1" as="geometry">
            <mxPoint x="730.0000000000005" y="670" as="targetPoint" />
            <Array as="points" />
          </mxGeometry>
        </mxCell>
        <mxCell id="Oe34ZR86a4oHpsQZYLKm-8" value="UserRiskRejected" style="ellipse;whiteSpace=wrap;html=1;fillColor=#f8cecc;strokeColor=#b85450;" parent="1" vertex="1">
          <mxGeometry x="410" y="120" width="120" height="80" as="geometry" />
        </mxCell>
        <mxCell id="Oe34ZR86a4oHpsQZYLKm-9" style="edgeStyle=orthogonalEdgeStyle;rounded=0;orthogonalLoop=1;jettySize=auto;html=1;exitX=0.5;exitY=0;exitDx=0;exitDy=0;entryX=0;entryY=0.5;entryDx=0;entryDy=0;" parent="1" source="Oe34ZR86a4oHpsQZYLKm-12" target="Oe34ZR86a4oHpsQZYLKm-8" edge="1">
          <mxGeometry relative="1" as="geometry" />
        </mxCell>
        <mxCell id="Oe34ZR86a4oHpsQZYLKm-10" style="edgeStyle=orthogonalEdgeStyle;rounded=0;orthogonalLoop=1;jettySize=auto;html=1;exitX=1;exitY=0.5;exitDx=0;exitDy=0;entryX=0;entryY=0.5;entryDx=0;entryDy=0;" parent="1" source="Oe34ZR86a4oHpsQZYLKm-12" target="Oe34ZR86a4oHpsQZYLKm-14" edge="1">
          <mxGeometry relative="1" as="geometry" />
        </mxCell>
        <mxCell id="Oe34ZR86a4oHpsQZYLKm-11" style="edgeStyle=orthogonalEdgeStyle;rounded=0;orthogonalLoop=1;jettySize=auto;html=1;exitX=0.5;exitY=1;exitDx=0;exitDy=0;entryX=0;entryY=0.5;entryDx=0;entryDy=0;" parent="1" source="Oe34ZR86a4oHpsQZYLKm-12" target="Oe34ZR86a4oHpsQZYLKm-15" edge="1">
          <mxGeometry relative="1" as="geometry" />
        </mxCell>
        <mxCell id="Oe34ZR86a4oHpsQZYLKm-12" value="User Risk" style="whiteSpace=wrap;html=1;aspect=fixed;fillColor=#dae8fc;strokeColor=#6c8ebf;" parent="1" vertex="1">
          <mxGeometry x="260" y="250" width="80" height="80" as="geometry" />
        </mxCell>
        <mxCell id="Oe34ZR86a4oHpsQZYLKm-13" style="edgeStyle=orthogonalEdgeStyle;rounded=0;orthogonalLoop=1;jettySize=auto;html=1;exitX=1;exitY=0.5;exitDx=0;exitDy=0;entryX=0;entryY=0.5;entryDx=0;entryDy=0;fillColor=#d5e8d4;strokeColor=#82b366;" parent="1" source="Oe34ZR86a4oHpsQZYLKm-14" edge="1">
          <mxGeometry relative="1" as="geometry">
            <mxPoint x="730.0000000000005" y="290" as="targetPoint" />
          </mxGeometry>
        </mxCell>
        <mxCell id="Oe34ZR86a4oHpsQZYLKm-14" value="UserRiskApproved" style="ellipse;whiteSpace=wrap;html=1;fillColor=#d5e8d4;strokeColor=#82b366;" parent="1" vertex="1">
          <mxGeometry x="410" y="250" width="120" height="80" as="geometry" />
        </mxCell>
        <mxCell id="Oe34ZR86a4oHpsQZYLKm-15" value="UserRiskChallenge" style="ellipse;whiteSpace=wrap;html=1;fillColor=#fff2cc;strokeColor=#d6b656;" parent="1" vertex="1">
          <mxGeometry x="350" y="370" width="120" height="80" as="geometry" />
        </mxCell>
        <mxCell id="Oe34ZR86a4oHpsQZYLKm-16" style="edgeStyle=orthogonalEdgeStyle;rounded=0;orthogonalLoop=1;jettySize=auto;html=1;exitX=1;exitY=0.5;exitDx=0;exitDy=0;entryX=0;entryY=0.5;entryDx=0;entryDy=0;" parent="1" source="Oe34ZR86a4oHpsQZYLKm-18" target="Oe34ZR86a4oHpsQZYLKm-21" edge="1">
          <mxGeometry relative="1" as="geometry" />
        </mxCell>
        <mxCell id="Oe34ZR86a4oHpsQZYLKm-17" style="edgeStyle=orthogonalEdgeStyle;rounded=0;orthogonalLoop=1;jettySize=auto;html=1;exitX=0.5;exitY=1;exitDx=0;exitDy=0;entryX=0.5;entryY=0;entryDx=0;entryDy=0;" parent="1" source="Oe34ZR86a4oHpsQZYLKm-18" target="Oe34ZR86a4oHpsQZYLKm-23" edge="1">
          <mxGeometry relative="1" as="geometry" />
        </mxCell>
        <mxCell id="Oe34ZR86a4oHpsQZYLKm-18" value="School Registry" style="whiteSpace=wrap;html=1;aspect=fixed;fillColor=#dae8fc;strokeColor=#6c8ebf;" parent="1" vertex="1">
          <mxGeometry x="370" y="510" width="80" height="80" as="geometry" />
        </mxCell>
        <mxCell id="Oe34ZR86a4oHpsQZYLKm-19" value="" style="endArrow=classic;html=1;rounded=0;exitX=0.5;exitY=1;exitDx=0;exitDy=0;" parent="1" source="Oe34ZR86a4oHpsQZYLKm-15" target="Oe34ZR86a4oHpsQZYLKm-18" edge="1">
          <mxGeometry width="50" height="50" relative="1" as="geometry">
            <mxPoint x="430" y="570" as="sourcePoint" />
            <mxPoint x="480" y="520" as="targetPoint" />
          </mxGeometry>
        </mxCell>
        <mxCell id="Oe34ZR86a4oHpsQZYLKm-20" style="edgeStyle=orthogonalEdgeStyle;rounded=0;orthogonalLoop=1;jettySize=auto;html=1;exitX=1;exitY=0.5;exitDx=0;exitDy=0;fillColor=#d5e8d4;strokeColor=#82b366;" parent="1" source="Oe34ZR86a4oHpsQZYLKm-21" edge="1">
          <mxGeometry relative="1" as="geometry">
            <mxPoint x="730" y="290" as="targetPoint" />
            <Array as="points">
              <mxPoint x="700" y="550" />
              <mxPoint x="700" y="290" />
            </Array>
          </mxGeometry>
        </mxCell>
        <mxCell id="Oe34ZR86a4oHpsQZYLKm-21" value="SchoolRegistry&lt;br&gt;Approved" style="ellipse;whiteSpace=wrap;html=1;fillColor=#d5e8d4;strokeColor=#82b366;" parent="1" vertex="1">
          <mxGeometry x="520" y="510" width="120" height="80" as="geometry" />
        </mxCell>
        <mxCell id="Oe34ZR86a4oHpsQZYLKm-22" style="edgeStyle=orthogonalEdgeStyle;rounded=0;orthogonalLoop=1;jettySize=auto;html=1;exitX=0.5;exitY=1;exitDx=0;exitDy=0;entryX=0.5;entryY=0;entryDx=0;entryDy=0;" parent="1" source="Oe34ZR86a4oHpsQZYLKm-23" target="Oe34ZR86a4oHpsQZYLKm-25" edge="1">
          <mxGeometry relative="1" as="geometry" />
        </mxCell>
        <mxCell id="ITaVqEbsi6WH0ugs4QtR-8" style="edgeStyle=orthogonalEdgeStyle;rounded=0;orthogonalLoop=1;jettySize=auto;html=1;exitX=1;exitY=0.5;exitDx=0;exitDy=0;entryX=0;entryY=0.5;entryDx=0;entryDy=0;fillColor=#f8cecc;strokeColor=#b85450;" edge="1" parent="1" source="Oe34ZR86a4oHpsQZYLKm-23" target="ITaVqEbsi6WH0ugs4QtR-7">
          <mxGeometry relative="1" as="geometry" />
        </mxCell>
        <mxCell id="Oe34ZR86a4oHpsQZYLKm-23" value="DocReviewNeeded" style="ellipse;whiteSpace=wrap;html=1;fillColor=#fff2cc;strokeColor=#d6b656;" parent="1" vertex="1">
          <mxGeometry x="350" y="650" width="120" height="80" as="geometry" />
        </mxCell>
        <mxCell id="Oe34ZR86a4oHpsQZYLKm-24" style="edgeStyle=orthogonalEdgeStyle;rounded=0;orthogonalLoop=1;jettySize=auto;html=1;exitX=0.5;exitY=1;exitDx=0;exitDy=0;entryX=0.5;entryY=0;entryDx=0;entryDy=0;" parent="1" source="Oe34ZR86a4oHpsQZYLKm-25" target="Oe34ZR86a4oHpsQZYLKm-30" edge="1">
          <mxGeometry relative="1" as="geometry" />
        </mxCell>
        <mxCell id="Oe34ZR86a4oHpsQZYLKm-25" value="Document upload" style="whiteSpace=wrap;html=1;aspect=fixed;fillColor=#dae8fc;strokeColor=#6c8ebf;" parent="1" vertex="1">
          <mxGeometry x="370" y="790" width="80" height="80" as="geometry" />
        </mxCell>
        <mxCell id="Oe34ZR86a4oHpsQZYLKm-26" style="edgeStyle=orthogonalEdgeStyle;rounded=0;orthogonalLoop=1;jettySize=auto;html=1;exitX=1;exitY=0.5;exitDx=0;exitDy=0;entryX=0;entryY=0.5;entryDx=0;entryDy=0;" parent="1" source="Oe34ZR86a4oHpsQZYLKm-25" target="Oe34ZR86a4oHpsQZYLKm-32" edge="1">
          <mxGeometry relative="1" as="geometry" />
        </mxCell>
        <mxCell id="Oe34ZR86a4oHpsQZYLKm-27" style="edgeStyle=orthogonalEdgeStyle;rounded=0;orthogonalLoop=1;jettySize=auto;html=1;entryX=0;entryY=0.5;entryDx=0;entryDy=0;" parent="1" target="Oe34ZR86a4oHpsQZYLKm-34" edge="1">
          <mxGeometry relative="1" as="geometry">
            <mxPoint x="420" y="870" as="sourcePoint" />
          </mxGeometry>
        </mxCell>
        <mxCell id="Oe34ZR86a4oHpsQZYLKm-28" style="edgeStyle=orthogonalEdgeStyle;rounded=0;orthogonalLoop=1;jettySize=auto;html=1;exitX=0.5;exitY=1;exitDx=0;exitDy=0;entryX=0.45;entryY=0.067;entryDx=0;entryDy=0;entryPerimeter=0;" parent="1" source="Oe34ZR86a4oHpsQZYLKm-30" target="Oe34ZR86a4oHpsQZYLKm-37" edge="1">
          <mxGeometry relative="1" as="geometry" />
        </mxCell>
        <mxCell id="Oe34ZR86a4oHpsQZYLKm-29" value="" style="edgeStyle=orthogonalEdgeStyle;rounded=0;orthogonalLoop=1;jettySize=auto;html=1;" parent="1" source="Oe34ZR86a4oHpsQZYLKm-30" edge="1">
          <mxGeometry relative="1" as="geometry">
            <mxPoint x="410" y="1090" as="targetPoint" />
          </mxGeometry>
        </mxCell>
        <mxCell id="Oe34ZR86a4oHpsQZYLKm-30" value="DocReview&lt;br&gt;InProgress" style="ellipse;whiteSpace=wrap;html=1;fillColor=#fff2cc;strokeColor=#d6b656;" parent="1" vertex="1">
          <mxGeometry x="300" y="920" width="130" height="80" as="geometry" />
        </mxCell>
        <mxCell id="Oe34ZR86a4oHpsQZYLKm-31" style="edgeStyle=orthogonalEdgeStyle;rounded=0;orthogonalLoop=1;jettySize=auto;html=1;exitX=1;exitY=0.5;exitDx=0;exitDy=0;entryX=0;entryY=0.5;entryDx=0;entryDy=0;fillColor=#d5e8d4;strokeColor=#82b366;" parent="1" source="Oe34ZR86a4oHpsQZYLKm-32" edge="1">
          <mxGeometry relative="1" as="geometry">
            <mxPoint x="730.0000000000005" y="290" as="targetPoint" />
            <Array as="points">
              <mxPoint x="700" y="830" />
              <mxPoint x="700" y="290" />
            </Array>
          </mxGeometry>
        </mxCell>
        <mxCell id="Oe34ZR86a4oHpsQZYLKm-32" value="DocReviewApproved" style="ellipse;whiteSpace=wrap;html=1;fillColor=#d5e8d4;strokeColor=#82b366;" parent="1" vertex="1">
          <mxGeometry x="530" y="790" width="120" height="80" as="geometry" />
        </mxCell>
        <mxCell id="Oe34ZR86a4oHpsQZYLKm-33" style="edgeStyle=orthogonalEdgeStyle;rounded=0;orthogonalLoop=1;jettySize=auto;html=1;exitX=1;exitY=0.5;exitDx=0;exitDy=0;fillColor=#f8cecc;strokeColor=#b85450;" parent="1" source="Oe34ZR86a4oHpsQZYLKm-34" target="Oe34ZR86a4oHpsQZYLKm-38" edge="1">
          <mxGeometry relative="1" as="geometry">
            <mxPoint x="750" y="840" as="targetPoint" />
            <Array as="points">
              <mxPoint x="670" y="1010" />
              <mxPoint x="670" y="1010" />
            </Array>
          </mxGeometry>
        </mxCell>
        <mxCell id="Oe34ZR86a4oHpsQZYLKm-34" value="DocReviewRejected" style="ellipse;whiteSpace=wrap;html=1;fillColor=#f8cecc;strokeColor=#b85450;" parent="1" vertex="1">
          <mxGeometry x="520" y="970" width="120" height="80" as="geometry" />
        </mxCell>
        <mxCell id="Oe34ZR86a4oHpsQZYLKm-35" value="proceed to signup" style="whiteSpace=wrap;html=1;aspect=fixed;fillColor=#e1d5e7;strokeColor=#9673a6;" parent="1" vertex="1">
          <mxGeometry x="730" y="250" width="80" height="80" as="geometry" />
        </mxCell>
        <mxCell id="Oe34ZR86a4oHpsQZYLKm-36" value="risk reject" style="whiteSpace=wrap;html=1;aspect=fixed;fillColor=#e1d5e7;strokeColor=#9673a6;" parent="1" vertex="1">
          <mxGeometry x="730" y="120" width="80" height="80" as="geometry" />
        </mxCell>
        <mxCell id="Oe34ZR86a4oHpsQZYLKm-37" value="Doc review message" style="rounded=0;whiteSpace=wrap;html=1;fillColor=#dae8fc;strokeColor=#6c8ebf;" parent="1" vertex="1">
          <mxGeometry x="310" y="1030" width="120" height="60" as="geometry" />
        </mxCell>
        <mxCell id="Oe34ZR86a4oHpsQZYLKm-38" value="doc review failed" style="whiteSpace=wrap;html=1;aspect=fixed;fillColor=#e1d5e7;strokeColor=#9673a6;" parent="1" vertex="1">
          <mxGeometry x="730" y="970" width="80" height="80" as="geometry" />
        </mxCell>
        <mxCell id="ITaVqEbsi6WH0ugs4QtR-4" value="" style="rounded=0;whiteSpace=wrap;html=1;fillColor=#ffe6cc;strokeColor=#d79b00;opacity=40;shadow=1;" vertex="1" parent="1">
          <mxGeometry x="140" y="750" width="690" height="350" as="geometry" />
        </mxCell>
        <mxCell id="ITaVqEbsi6WH0ugs4QtR-5" value="Out of scope for Part 1" style="text;html=1;align=center;verticalAlign=middle;resizable=0;points=[];autosize=1;strokeColor=none;fillColor=none;" vertex="1" parent="1">
          <mxGeometry x="140" y="760" width="140" height="20" as="geometry" />
        </mxCell>
        <mxCell id="ITaVqEbsi6WH0ugs4QtR-7" value="sheer id reject" style="whiteSpace=wrap;html=1;aspect=fixed;shadow=1;strokeColor=#9673a6;fillColor=#e1d5e7;opacity=40;" vertex="1" parent="1">
          <mxGeometry x="730" y="650" width="80" height="80" as="geometry" />
        </mxCell>
      </root>
    </mxGraphModel>
  </diagram>
</mxfile>
